<svg width="78" height="34" viewBox="0 0 78 34" fill="none" xmlns="http://www.w3.org/2000/svg">
<path d="M16.4922 23.2402V26H3.69531V23.2402H16.4922ZM4.36328 0.40625V26H0.970703V0.40625H4.36328ZM19.0234 16.7012V16.2969C19.0234 14.9258 19.2227 13.6543 19.6211 12.4824C20.0195 11.2988 20.5938 10.2734 21.3438 9.40625C22.0938 8.52734 23.002 7.84766 24.0684 7.36719C25.1348 6.875 26.3301 6.62891 27.6543 6.62891C28.9902 6.62891 30.1914 6.875 31.2578 7.36719C32.3359 7.84766 33.25 8.52734 34 9.40625C34.7617 10.2734 35.3418 11.2988 35.7402 12.4824C36.1387 13.6543 36.3379 14.9258 36.3379 16.2969V16.7012C36.3379 18.0723 36.1387 19.3438 35.7402 20.5156C35.3418 21.6875 34.7617 22.7129 34 23.5918C33.25 24.459 32.3418 25.1387 31.2754 25.6309C30.2207 26.1113 29.0254 26.3516 27.6895 26.3516C26.3535 26.3516 25.1523 26.1113 24.0859 25.6309C23.0195 25.1387 22.1055 24.459 21.3438 23.5918C20.5938 22.7129 20.0195 21.6875 19.6211 20.5156C19.2227 19.3438 19.0234 18.0723 19.0234 16.7012ZM22.2754 16.2969V16.7012C22.2754 17.6504 22.3867 18.5469 22.6094 19.3906C22.832 20.2227 23.166 20.9609 23.6113 21.6055C24.0684 22.25 24.6367 22.7598 25.3164 23.1348C25.9961 23.498 26.7871 23.6797 27.6895 23.6797C28.5801 23.6797 29.3594 23.498 30.0273 23.1348C30.707 22.7598 31.2695 22.25 31.7148 21.6055C32.1602 20.9609 32.4941 20.2227 32.7168 19.3906C32.9512 18.5469 33.0684 17.6504 33.0684 16.7012V16.2969C33.0684 15.3594 32.9512 14.4746 32.7168 13.6426C32.4941 12.7988 32.1543 12.0547 31.6973 11.4102C31.252 10.7539 30.6895 10.2383 30.0098 9.86328C29.3418 9.48828 28.5566 9.30078 27.6543 9.30078C26.7637 9.30078 25.9785 9.48828 25.2988 9.86328C24.6309 10.2383 24.0684 10.7539 23.6113 11.4102C23.166 12.0547 22.832 12.7988 22.6094 13.6426C22.3867 14.4746 22.2754 15.3594 22.2754 16.2969ZM52.7383 6.98047H55.6914V25.5957C55.6914 27.2715 55.3516 28.7012 54.6719 29.8848C53.9922 31.0684 53.043 31.9648 51.8242 32.5742C50.6172 33.1953 49.2227 33.5059 47.6406 33.5059C46.9844 33.5059 46.2109 33.4004 45.3203 33.1895C44.4414 32.9902 43.5742 32.6445 42.7188 32.1523C41.875 31.6719 41.166 31.0215 40.5918 30.2012L42.2969 28.2676C43.0938 29.2285 43.9258 29.8965 44.793 30.2715C45.6719 30.6465 46.5391 30.834 47.3945 30.834C48.4258 30.834 49.3164 30.6406 50.0664 30.2539C50.8164 29.8672 51.3965 29.293 51.8066 28.5312C52.2285 27.7812 52.4395 26.8555 52.4395 25.7539V11.1641L52.7383 6.98047ZM39.6426 16.7012V16.332C39.6426 14.8789 39.8125 13.5605 40.1523 12.377C40.5039 11.1816 41.002 10.1562 41.6465 9.30078C42.3027 8.44531 43.0938 7.78906 44.0195 7.33203C44.9453 6.86328 45.9883 6.62891 47.1484 6.62891C48.3438 6.62891 49.3867 6.83984 50.2773 7.26172C51.1797 7.67187 51.9414 8.27539 52.5625 9.07227C53.1953 9.85742 53.6934 10.8066 54.0566 11.9199C54.4199 13.0332 54.6719 14.293 54.8125 15.6992V17.3164C54.6836 18.7109 54.4316 19.9648 54.0566 21.0781C53.6934 22.1914 53.1953 23.1406 52.5625 23.9258C51.9414 24.7109 51.1797 25.3145 50.2773 25.7363C49.375 26.1465 48.3203 26.3516 47.1133 26.3516C45.9766 26.3516 44.9453 26.1113 44.0195 25.6309C43.1055 25.1504 42.3203 24.4766 41.6641 23.6094C41.0078 22.7422 40.5039 21.7227 40.1523 20.5508C39.8125 19.3672 39.6426 18.084 39.6426 16.7012ZM42.8945 16.332V16.7012C42.8945 17.6504 42.9883 18.541 43.1758 19.373C43.375 20.2051 43.6738 20.9375 44.0723 21.5703C44.4824 22.2031 45.0039 22.7012 45.6367 23.0645C46.2695 23.416 47.0254 23.5918 47.9043 23.5918C48.9824 23.5918 49.873 23.3633 50.5762 22.9062C51.2793 22.4492 51.8359 21.8457 52.2461 21.0957C52.668 20.3457 52.9961 19.5312 53.2305 18.6523V14.416C53.1016 13.7715 52.9023 13.1504 52.6328 12.5527C52.375 11.9434 52.0352 11.4043 51.6133 10.9355C51.2031 10.4551 50.6934 10.0742 50.084 9.79297C49.4746 9.51172 48.7598 9.37109 47.9395 9.37109C47.0488 9.37109 46.2812 9.55859 45.6367 9.93359C45.0039 10.2969 44.4824 10.8008 44.0723 11.4453C43.6738 12.0781 43.375 12.8164 43.1758 13.6602C42.9883 14.4922 42.8945 15.3828 42.8945 16.332ZM59.7695 16.7012V16.2969C59.7695 14.9258 59.9688 13.6543 60.3672 12.4824C60.7656 11.2988 61.3398 10.2734 62.0898 9.40625C62.8398 8.52734 63.748 7.84766 64.8145 7.36719C65.8809 6.875 67.0762 6.62891 68.4004 6.62891C69.7363 6.62891 70.9375 6.875 72.0039 7.36719C73.082 7.84766 73.9961 8.52734 74.7461 9.40625C75.5078 10.2734 76.0879 11.2988 76.4863 12.4824C76.8848 13.6543 77.084 14.9258 77.084 16.2969V16.7012C77.084 18.0723 76.8848 19.3438 76.4863 20.5156C76.0879 21.6875 75.5078 22.7129 74.7461 23.5918C73.9961 24.459 73.0879 25.1387 72.0215 25.6309C70.9668 26.1113 69.7715 26.3516 68.4355 26.3516C67.0996 26.3516 65.8984 26.1113 64.832 25.6309C63.7656 25.1387 62.8516 24.459 62.0898 23.5918C61.3398 22.7129 60.7656 21.6875 60.3672 20.5156C59.9688 19.3438 59.7695 18.0723 59.7695 16.7012ZM63.0215 16.2969V16.7012C63.0215 17.6504 63.1328 18.5469 63.3555 19.3906C63.5781 20.2227 63.9121 20.9609 64.3574 21.6055C64.8145 22.25 65.3828 22.7598 66.0625 23.1348C66.7422 23.498 67.5332 23.6797 68.4355 23.6797C69.3262 23.6797 70.1055 23.498 70.7734 23.1348C71.4531 22.7598 72.0156 22.25 72.4609 21.6055C72.9062 20.9609 73.2402 20.2227 73.4629 19.3906C73.6973 18.5469 73.8145 17.6504 73.8145 16.7012V16.2969C73.8145 15.3594 73.6973 14.4746 73.4629 13.6426C73.2402 12.7988 72.9004 12.0547 72.4434 11.4102C71.998 10.7539 71.4355 10.2383 70.7559 9.86328C70.0879 9.48828 69.3027 9.30078 68.4004 9.30078C67.5098 9.30078 66.7246 9.48828 66.0449 9.86328C65.377 10.2383 64.8145 10.7539 64.3574 11.4102C63.9121 12.0547 63.5781 12.7988 63.3555 13.6426C63.1328 14.4746 63.0215 15.3594 63.0215 16.2969Z" fill="#1F4B43"/>
</svg>
